<?xml version="1.0" encoding="UTF-8" standalone="no"?>
<svg width="22px" height="51px" viewBox="0 0 22 51" version="1.1" xmlns="http://www.w3.org/2000/svg" xmlns:xlink="http://www.w3.org/1999/xlink" xmlns:sketch="http://www.bohemiancoding.com/sketch/ns">
    <!-- Generator: Sketch 3.5.2 (25235) - http://www.bohemiancoding.com/sketch -->
    <title>Page 1</title>
    <desc>Created with Sketch.</desc>
    <defs>
        <path id="path-1" d="M0,0.587 L21.782,0.587 L21.782,51 L0,51"></path>
        <path id="path-3" d="M0,0.587 L21.782,0.587 L21.782,51 L0,51"></path>
    </defs>
    <g id="Page-1" stroke="none" stroke-width="1" fill="none" fill-rule="evenodd" sketch:type="MSPage">
        <g sketch:type="MSLayerGroup">
            <g id="Group-3">
                <mask id="mask-2" sketch:name="Clip 2" fill="white">
                    <use xlink:href="#path-1"></use>
                </mask>
                <g id="Clip-2"></g>
                <path d="M19.2161,3.4615 C20.1391,2.8945 20.8471,1.9945 21.1811,0.9235 C20.3171,1.4485 19.3621,1.8305 18.3421,2.0355 C17.5281,1.1435 16.3661,0.5865 15.0801,0.5865 C12.6141,0.5865 10.6131,2.6425 10.6131,5.1765 C10.6131,5.5365 10.6511,5.8855 10.7281,6.2215 C7.0141,6.0305 3.7221,4.2045 1.5161,1.4245 C1.1311,2.1045 0.9111,2.8945 0.9111,3.7345 C0.9111,5.3265 1.7001,6.7315 2.9001,7.5545 C2.1681,7.5325 1.4781,7.3235 0.8741,6.9825 L0.8741,7.0385 C0.8741,9.2635 2.4151,11.1195 4.4611,11.5395 C4.0861,11.6465 3.6911,11.7005 3.2831,11.7005 C2.9951,11.7005 2.7141,11.6735 2.4421,11.6195 C3.0111,13.4425 4.6601,14.7695 6.6161,14.8055 C5.0871,16.0375 3.1591,16.7715 1.0661,16.7715 C0.7061,16.7715 0.3491,16.7505 0.0001,16.7085 C1.9781,18.0085 4.3281,18.7685 6.8501,18.7685 C15.0711,18.7685 19.5651,11.7755 19.5651,5.7095 C19.5651,5.5105 19.5611,5.3105 19.5541,5.1145 C20.4271,4.4675 21.1851,3.6595 21.7821,2.7395 C20.9821,3.1045 20.1201,3.3515 19.2161,3.4615" id="Fill-1" fill="#FFFFFF" sketch:type="MSShapeGroup" mask="url(#mask-2)"></path>
            </g>
            <g id="Group-6">
                <mask id="mask-4" sketch:name="Clip 5" fill="white">
                    <use xlink:href="#path-3"></use>
                </mask>
                <g id="Clip-5"></g>
                <path d="M19.2161,35.6929 C20.1391,35.1259 20.8471,34.2259 21.1811,33.1549 C20.3171,33.6799 19.3621,34.0619 18.3421,34.2669 C17.5281,33.3749 16.3661,32.8179 15.0801,32.8179 C12.6141,32.8179 10.6131,34.8739 10.6131,37.4079 C10.6131,37.7679 10.6511,38.1169 10.7281,38.4529 C7.0141,38.2619 3.7221,36.4359 1.5161,33.6559 C1.1311,34.3359 0.9111,35.1259 0.9111,35.9659 C0.9111,37.5579 1.7001,38.9629 2.9001,39.7859 C2.1681,39.7639 1.4781,39.5549 0.8741,39.2139 L0.8741,39.2699 C0.8741,41.4949 2.4151,43.3509 4.4611,43.7709 C4.0861,43.8779 3.6911,43.9319 3.2831,43.9319 C2.9951,43.9319 2.7141,43.9049 2.4421,43.8509 C3.0111,45.6739 4.6601,47.0009 6.6161,47.0369 C5.0871,48.2689 3.1591,49.0029 1.0661,49.0029 C0.7061,49.0029 0.3491,48.9819 0.0001,48.9399 C1.9781,50.2399 4.3281,50.9999 6.8501,50.9999 C15.0711,50.9999 19.5651,44.0069 19.5651,37.9409 C19.5651,37.7419 19.5611,37.5419 19.5541,37.3459 C20.4271,36.6989 21.1851,35.8909 21.7821,34.9709 C20.9821,35.3359 20.1201,35.5829 19.2161,35.6929" id="Fill-4" fill="#00FFD8" sketch:type="MSShapeGroup" mask="url(#mask-4)"></path>
            </g>
        </g>
    </g>
</svg>