<svg xmlns="http://www.w3.org/2000/svg" width="32" height="32" viewBox="0 0 32 32">
  <defs>
    <style>
      .cls-1 {
        fill: #fff;
        fill-rule: evenodd;
      }
    </style>
  </defs>
  <path id="weather_icon" class="cls-1" d="M1473,74a1,1,0,0,1-1-1.01V71.01a1,1,0,0,1,1-1.01,1.006,1.006,0,0,1,1,1.01v1.98A1,1,0,0,1,1473,74Zm-8,0a1,1,0,0,1-1-1.01V71.01a1,1,0,1,1,2,0v1.98A1,1,0,0,1,1465,74Zm12-2a1,1,0,0,1-1-1.01V69.01a1,1,0,0,1,1-1.01,1.006,1.006,0,0,1,1,1.01v1.98A1,1,0,0,1,1477,72Zm-6.99-23.479A6,6,0,0,1,1480,53a7.034,7.034,0,0,1-.07.925,6.6,6.6,0,0,1,.65,1.287A6,6,0,0,1,1479,67h-20a6,6,0,0,1-3-11.2A9,9,0,0,1,1470.01,48.521ZM1469,72a1,1,0,0,1-1-1.01V69.01a1,1,0,0,1,1-1.01,1.006,1.006,0,0,1,1,1.01v1.98A1,1,0,0,1,1469,72Zm9.95-23.948a1,1,0,0,1,.01-1.421l1.4-1.4a1,1,0,1,1,1.41,1.414l-1.4,1.4A1,1,0,0,1,1478.95,48.052ZM1461,72a1,1,0,0,1-1-1.01V69.01a1,1,0,1,1,2,0v1.98A1,1,0,0,1,1461,72Zm13-26a1,1,0,0,1-1-1.01V43.01a1,1,0,1,1,2,0v1.98A1,1,0,0,1,1474,46Zm3.85,5.933a4,4,0,0,0-6.3-2.1,8.632,8.632,0,0,1,1.1,1.432A6.551,6.551,0,0,1,1474.5,51,6.439,6.439,0,0,1,1477.85,51.933ZM1481,53a1,1,0,0,1,1.01-1h1.98a1,1,0,1,1,0,2h-1.98A1,1,0,0,1,1481,53Zm-2.03,4a4.5,4.5,0,0,0-7.27-3.025A7,7,0,0,0,1458,56a6.7,6.7,0,0,0,.09,1.1A4,4,0,0,0,1459,65h20a4,4,0,0,0,0-8h-0.03Z" transform="translate(-1453 -42)"/>
</svg>
